<svg width="431" height="335" viewBox="0 0 431 335" fill="none" xmlns="http://www.w3.org/2000/svg">
<g clip-path="url(#clip0_405_41)">
<path d="M417.417 108.183L415.095 111.795L400.055 104.555L403.482 99.2232L417.417 108.183Z" fill="#FFB6B6"/>
<path d="M392.514 129.618L388.962 132.03L377.964 119.473L383.206 115.912L392.514 129.618Z" fill="#FFB6B6"/>
<path d="M395.157 133.24L384.234 140.659L384.14 140.52C383.374 139.392 383.087 138.007 383.343 136.667C383.598 135.328 384.375 134.146 385.503 133.38L386.47 130.51L391.221 129.496L392.175 128.848L395.157 133.24Z" fill="#2F2E41"/>
<path d="M421.016 109.206L413.877 120.315L413.736 120.224C412.589 119.487 411.782 118.324 411.492 116.992C411.202 115.66 411.454 114.267 412.19 113.12L411.955 110.101L415.928 107.305L416.551 106.335L421.016 109.206Z" fill="#2F2E41"/>
<path d="M333.935 50.8733L350.872 87.4214L355.669 91.3234L356.098 96.1031L379.63 124.657L380.2 127.968L384.757 127.768L391.29 123.33L372.896 95.5038L371.758 90.3567L370.242 88.1241L362.1 69.0684L375.777 87.9022L379.488 91.3103L380.648 94.7444L383.071 96.0557L405.175 109.258L412.501 104.281L408.969 100.3C409.83 98.7435 405.227 99.0308 403.935 97.8077L403.365 94.6469L399.171 90.7935L392.094 82.5039L380.289 62.8791L362.496 37.7395C357.795 36.1114 353.338 35.4207 349.472 37.0053L333.935 50.8733Z" fill="#2F2E41"/>
<path d="M317.669 -1.35895C321.758 -4.13638 322.82 -9.70372 320.042 -13.794C317.264 -17.8842 311.697 -18.9484 307.608 -16.171C303.519 -13.3935 302.456 -7.82622 305.234 -3.73599C308.013 0.354239 313.58 1.41848 317.669 -1.35895Z" fill="#FFB6B6"/>
<path d="M321.833 70.4469C321.459 70.0936 321.166 69.6625 320.976 69.1838C320.785 68.7052 320.702 68.1907 320.732 67.6766C320.763 67.1624 320.905 66.6612 321.15 66.2082C321.395 65.7551 321.736 65.3613 322.149 65.0544L318.395 53.1108L324.649 54.9003L327.256 65.9678C327.725 66.6968 327.911 67.5727 327.778 68.4294C327.645 69.2862 327.203 70.0644 326.534 70.6165C325.866 71.1686 325.018 71.4563 324.152 71.425C323.285 71.3938 322.46 71.0457 321.833 70.4469Z" fill="#FFB6B6"/>
<path d="M313.49 16.5399L310.495 15.005L309.163 16.7501C309.163 16.7501 308.095 19.2689 308.58 25.7105C308.804 28.6899 315.476 44.2395 315.476 44.2395L320.448 64.9457L327.52 61.7099L323.588 44.5335L320.895 27.3686L313.49 16.5399Z" fill="#505050"/>
<path d="M346.737 42.0262C351.95 38.4853 357.907 35.9394 362.554 38.1466C361.956 37.3868 360.875 36.0988 359.866 34.9288L357.01 31.8835L355.431 28.3849L355.662 27.1725L353.491 26.7575L349.938 19.6294L342.402 2.27122C341.808 0.906208 340.78 -0.224452 339.477 -0.944886C338.175 -1.66532 336.671 -1.93515 335.199 -1.71243L331.489 -1.15805L324.098 -2.28502L315.856 3.22402L315.544 8.52061L310.126 15.6974L327.925 39.3584L328.379 41.6934C328.661 41.7349 329.259 41.827 329.607 41.9119C330.099 42.0318 330.827 43.8741 331.218 44.9615L332.566 47.65L334.096 47.6864L333.832 50.1792L334.929 52.3701C336.045 51.1521 340.929 45.9712 346.737 42.0262Z" fill="#505050"/>
<path d="M315.446 -21.003C314.869 -21.096 314.278 -20.9833 313.776 -20.6845C313.308 -20.3439 313.116 -19.5816 313.534 -19.1802C311.596 -20.1403 309.383 -20.3875 307.282 -19.8782C305.181 -19.3689 303.327 -18.1358 302.045 -16.3952C301.14 -15.167 300.544 -13.5343 301.108 -12.1164C301.301 -11.7749 301.418 -11.3955 301.45 -11.0044C301.414 -10.7594 301.308 -10.5302 301.143 -10.345C300.979 -10.1598 300.764 -10.0268 300.525 -9.96225L300.511 -9.95773C300.429 -9.93536 300.356 -9.88901 300.301 -9.82466C300.246 -9.76032 300.212 -9.68095 300.202 -9.59682C300.193 -9.5127 300.209 -9.42769 300.248 -9.35278C300.288 -9.27787 300.349 -9.21651 300.424 -9.17665L301.187 -8.77724C300.827 -8.39433 300.379 -8.10417 299.883 -7.93147C299.801 -7.90238 299.729 -7.84857 299.679 -7.77741C299.629 -7.70625 299.602 -7.62123 299.601 -7.53401C299.601 -7.4468 299.628 -7.36166 299.678 -7.29028C299.728 -7.21889 299.799 -7.16475 299.881 -7.13529C300.961 -6.74961 302.116 -6.62126 303.253 -6.76047C304.391 -6.89968 305.481 -7.3026 306.435 -7.93716C307.775 -8.85911 308.819 -10.246 310.339 -10.8259C310.926 -11.0502 311.557 -11.14 312.184 -11.0888C312.811 -11.0376 313.419 -10.8466 313.963 -10.5299C314.506 -10.2131 314.972 -9.77866 315.326 -9.25837C315.681 -8.73807 315.914 -8.14515 316.009 -7.52308C316.112 -8.23632 316.96 -8.66023 317.665 -8.50822C318.011 -8.40594 318.333 -8.23365 318.61 -8.00202C318.887 -7.77038 319.114 -7.48435 319.276 -7.1616C319.782 -6.17985 320.111 -5.11629 320.247 -4.02007C321.805 -5.14956 322.978 -6.73 323.609 -8.54794C324.239 -10.3659 324.296 -12.3337 323.773 -14.1856C323.249 -16.0376 322.17 -17.6843 320.681 -18.9035C319.192 -20.1227 317.365 -20.8555 315.446 -21.003Z" fill="#2F2E41"/>
<path d="M57.3852 113.876C67.5512 106.971 70.1929 93.1293 63.2856 82.9603C56.3782 72.7912 42.5376 70.1453 32.3716 77.0505C22.2056 83.9557 19.564 97.7972 26.4713 107.966C33.3786 118.135 47.2192 120.781 57.3852 113.876Z" fill="#505050"/>
<path d="M30.3472 185.376C7.23016 171.214 -10.024 145.08 -7.40327 118.099C13.6347 138.754 41.2977 151.303 70.6913 153.526C82.0303 154.342 94.7266 154.069 102.983 161.887C108.12 166.751 110.449 174.005 110.758 181.073C111.066 188.14 109.563 195.147 108.069 202.062L108.532 203.766C81.4269 203.52 53.4642 199.539 30.3472 185.376Z" fill="#F2F2F2"/>
<path d="M-6.8349 118.077C2.13969 138.387 17.6593 155.963 36.9222 167.071C41.0868 169.473 45.5203 171.547 50.2469 172.543C54.9755 173.539 59.5219 173.101 64.0919 171.624C68.2697 170.274 72.3868 168.41 76.8203 168.099C81.4934 167.772 85.7926 169.628 89.1486 172.827C93.2548 176.74 95.7105 181.895 97.9369 187.02C100.409 192.71 102.886 198.659 107.711 202.79C108.295 203.29 107.485 204.168 106.901 203.668C98.5075 196.481 97.2715 184.609 90.5956 176.186C87.4805 172.256 83.1625 169.24 77.9877 169.252C73.4625 169.262 69.2153 171.181 64.997 172.584C60.5676 174.058 56.1407 174.72 51.4932 173.987C46.739 173.238 42.2151 171.333 38.0074 169.048C28.5181 163.896 19.8769 156.987 12.4676 149.154C3.9508 140.152 -2.96391 129.76 -7.97735 118.427C-8.28736 117.725 -7.14287 117.38 -6.8349 118.077Z" fill="white"/>
<path d="M30.4705 163.791C28.1299 166.782 24.8019 168.844 21.0809 169.608C17.3599 170.372 13.4881 169.788 10.1571 167.961C9.48442 167.589 10.0306 166.526 10.7043 166.898C13.8029 168.606 17.4095 169.149 20.8731 168.431C24.3366 167.713 27.429 165.779 29.592 162.981C30.0628 162.373 30.9386 163.186 30.4705 163.791Z" fill="white"/>
<path d="M62.0637 172.588C61.1911 164.87 57.4423 157.764 51.5646 152.687C50.9818 152.184 51.7921 151.307 52.3741 151.809C58.4807 157.104 62.367 164.506 63.2574 172.539C63.3417 173.305 62.1476 173.349 62.0637 172.588Z" fill="white"/>
<path d="M5.43918 139.61C6.58606 138.642 7.47431 137.403 8.02418 136.006C8.57404 134.609 8.7683 133.097 8.58949 131.606C8.49549 130.842 9.68977 130.798 9.78316 131.558C9.97305 133.206 9.75648 134.875 9.15239 136.42C8.54829 137.965 7.57505 139.339 6.3177 140.42C6.20773 140.532 6.05927 140.598 5.90249 140.604C5.74571 140.611 5.59238 140.557 5.47365 140.455C5.35787 140.347 5.2893 140.198 5.28285 140.04C5.27639 139.881 5.33257 139.727 5.43918 139.61Z" fill="white"/>
<path d="M68.6433 66.737C68.7155 67.2125 68.7878 67.6881 68.869 68.1682C69.8737 74.5568 71.3956 80.8532 73.4198 86.9955C73.5688 87.4729 73.7269 87.9544 73.8893 88.4265C78.9237 103.173 86.6515 116.857 96.6799 128.783C100.675 133.525 105.025 137.956 109.692 142.039C116.137 147.676 123.574 153.276 127.661 160.5C128.096 161.249 128.484 162.024 128.824 162.821L110.575 203.069C110.487 203.14 110.409 203.215 110.321 203.286L109.666 204.927C109.411 204.733 109.15 204.527 108.895 204.333C108.746 204.221 108.602 204.1 108.453 203.989C108.355 203.911 108.258 203.833 108.165 203.769C108.132 203.744 108.1 203.717 108.076 203.696C107.984 203.632 107.904 203.562 107.821 203.502C106.36 202.352 104.905 201.19 103.456 200.016C103.447 200.012 103.447 200.012 103.442 199.999C92.42 191.023 82.0507 181.048 73.5244 169.817C73.268 169.479 73.0022 169.137 72.7541 168.781C68.939 163.697 65.5456 158.31 62.6078 152.673C61.0091 149.581 59.5679 146.411 58.2897 143.174C55.0031 134.803 53.0534 125.968 52.5119 116.992C51.4353 99.0977 56.0925 81.0604 67.7431 67.7455C68.0414 67.4051 68.3358 67.0732 68.6433 66.737Z" fill="#F2F2F2"/>
<path d="M69.113 67.0592C64.0537 88.676 65.8672 112.051 74.5636 132.518C76.4437 136.942 78.7359 141.268 81.9109 144.909C85.0873 148.552 88.9823 150.939 93.5208 152.512C97.6699 153.95 102.08 154.941 105.808 157.362C109.737 159.915 112.053 163.986 112.807 168.56C113.731 174.156 112.589 179.75 111.282 185.181C109.83 191.212 108.227 197.453 109.593 203.655C109.759 204.407 108.583 204.619 108.418 203.869C106.041 193.078 112.201 182.857 111.941 172.113C111.819 167.099 110.186 162.092 106.046 158.985C102.426 156.269 97.8791 155.243 93.6655 153.824C89.2411 152.333 85.3071 150.196 82.0367 146.812C78.6913 143.351 76.2251 139.107 74.2402 134.749C69.7636 124.922 67.0217 114.204 65.8198 103.49C64.4374 91.1757 65.1714 78.7161 67.9902 66.6505C68.1649 65.9038 69.2867 66.3174 69.113 67.0592Z" fill="white"/>
<path d="M71.3859 126.014C67.7156 126.993 63.8166 126.635 60.3851 125.004C56.9536 123.373 54.2131 120.576 52.6531 117.111C52.3398 116.409 53.4158 115.89 53.7295 116.593C55.1763 119.822 57.7293 122.427 60.9278 123.939C64.1263 125.451 67.7596 125.77 71.1719 124.839C71.9137 124.637 72.1234 125.814 71.3859 126.014Z" fill="white"/>
<path d="M91.3211 152.06C95.2702 145.374 96.5539 137.444 94.9164 129.852C94.7536 129.1 95.9291 128.887 96.0918 129.638C97.781 137.542 96.4283 145.791 92.3035 152.74C91.9099 153.402 90.9296 152.718 91.3211 152.06Z" fill="white"/>
<path d="M65.9521 91.6394C67.4513 91.5567 68.9062 91.1028 70.1864 90.3187C71.4666 89.5345 72.5319 88.4445 73.2867 87.1467C73.6717 86.48 74.6516 87.1644 74.2691 87.8268C73.4285 89.2568 72.2505 90.4591 70.838 91.3287C69.4256 92.1982 67.8215 92.7085 66.1662 92.815C66.011 92.8381 65.8528 92.8012 65.7237 92.7119C65.5947 92.6226 65.5045 92.4875 65.4715 92.3341C65.4439 92.1783 65.479 92.0179 65.569 91.8879C65.659 91.7578 65.7967 91.6685 65.9521 91.6394Z" fill="white"/>
<path d="M170.34 57.575C147.223 43.4128 129.969 17.2782 132.59 -9.70276C153.628 10.9523 181.291 23.5014 210.684 25.7243C222.023 26.5404 234.72 26.2675 242.976 34.0853C248.113 38.9496 250.442 46.2038 250.751 53.2712C251.059 60.339 249.556 67.3458 248.062 74.2602L248.525 75.9645C221.42 75.719 193.457 71.7372 170.34 57.575Z" fill="#F2F2F2"/>
<path d="M133.158 -9.7244C142.133 10.5854 157.652 28.1612 176.915 39.2696C181.08 41.6712 185.514 43.745 190.24 44.7412C194.969 45.7379 199.515 45.2991 204.085 43.8226C208.263 42.4727 212.38 40.6081 216.813 40.2975C221.487 39.9702 225.786 41.8268 229.142 45.0252C233.248 48.9385 235.704 54.0936 237.93 59.2183C240.402 64.9083 242.879 70.8575 247.704 74.9884C248.288 75.4889 247.478 76.3666 246.894 75.8668C238.501 68.6798 237.265 56.8079 230.589 48.3846C227.474 44.4542 223.156 41.4385 217.981 41.4502C213.456 41.4604 209.209 43.3796 204.99 44.7829C200.561 46.2564 196.134 46.9186 191.486 46.1857C186.732 45.436 182.208 43.5312 178.001 41.2465C168.511 36.0942 159.87 29.1855 152.461 21.3528C143.944 12.3507 137.029 1.95835 132.016 -9.37469C131.706 -10.0763 132.85 -10.4214 133.158 -9.7244Z" fill="white"/>
<path d="M170.464 35.9892C168.123 38.9809 164.795 41.0428 161.074 41.8066C157.353 42.5705 153.481 41.9866 150.15 40.1591C149.478 39.7871 150.024 38.7242 150.697 39.0968C153.796 40.8042 157.403 41.3478 160.866 40.6294C164.33 39.911 167.422 37.978 169.585 35.1793C170.056 34.5716 170.932 35.385 170.464 35.9892Z" fill="white"/>
<path d="M202.057 44.786C201.184 37.0686 197.435 29.9628 191.558 24.8855C190.975 24.3829 191.785 23.5051 192.367 24.0071C198.474 29.302 202.36 36.7047 203.251 44.7376C203.335 45.5033 202.141 45.5476 202.057 44.786Z" fill="white"/>
<path d="M145.432 11.8089C146.579 10.8402 147.467 9.60163 148.017 8.20453C148.567 6.80743 148.761 5.29553 148.583 3.80458C148.489 3.04032 149.683 2.99688 149.776 3.75618C149.966 5.40435 149.75 7.07383 149.146 8.61876C148.541 10.1637 147.568 11.5371 146.311 12.6189C146.201 12.7308 146.052 12.7966 145.896 12.8029C145.739 12.8093 145.586 12.7557 145.467 12.6531C145.351 12.5453 145.282 12.3961 145.276 12.2381C145.27 12.08 145.326 11.9258 145.432 11.8089Z" fill="white"/>
<path d="M208.636 -61.0645C208.709 -60.589 208.781 -60.1134 208.862 -59.6332C209.867 -53.2447 211.389 -46.9483 213.413 -40.806C213.562 -40.3286 213.72 -39.847 213.882 -39.3749C218.917 -24.6287 226.645 -10.9447 236.673 0.981582C240.668 5.72365 245.018 10.155 249.685 14.2372C256.13 19.8746 263.567 25.4742 267.655 32.6987C268.089 33.4477 268.477 34.2228 268.817 35.0197L250.568 75.2679C250.48 75.3386 250.402 75.4138 250.314 75.4849L249.659 77.1252C249.404 76.9315 249.143 76.7251 248.888 76.5313C248.739 76.4196 248.595 76.2988 248.446 76.1871C248.348 76.1097 248.251 76.0319 248.158 75.9677C248.125 75.9421 248.093 75.916 248.069 75.8945C247.977 75.8303 247.897 75.7608 247.814 75.7008C246.353 74.551 244.898 73.3889 243.449 72.2146C243.44 72.2104 243.44 72.2104 243.435 72.1973C232.413 63.2214 222.044 53.2465 213.517 42.0152C213.261 41.6772 212.995 41.3355 212.747 40.9791C208.932 35.8952 205.539 30.5081 202.601 24.8716C201.002 21.78 199.561 18.6095 198.283 15.3723C194.996 7.00147 193.046 -1.83392 192.505 -10.8099C191.428 -28.7037 196.086 -46.7411 207.736 -60.056C208.034 -60.3964 208.329 -60.7283 208.636 -61.0645Z" fill="#F0F0F0"/>
<path d="M209.106 -60.7423C204.047 -39.1255 205.86 -15.7503 214.557 4.71614C216.437 9.14093 218.729 13.466 221.904 17.1073C225.08 20.7502 228.975 23.1374 233.514 24.7105C237.663 26.1486 242.073 27.1391 245.801 29.5608C249.73 32.1133 252.046 36.1841 252.801 40.7581C253.724 46.3545 252.582 51.9483 251.275 57.3798C249.823 63.4104 248.221 69.6513 249.587 75.8539C249.752 76.6054 248.577 76.818 248.411 76.0676C246.035 65.2762 252.194 55.055 251.934 44.3111C251.812 39.2978 250.179 34.2904 246.039 31.1838C242.419 28.4673 237.872 27.4419 233.659 26.0221C229.234 24.5313 225.3 22.3942 222.03 19.0108C218.684 15.5497 216.218 11.3051 214.233 6.94774C209.757 -2.87915 207.015 -13.5974 205.813 -24.3114C204.431 -36.6258 205.165 -49.0854 207.983 -61.151C208.158 -61.8978 209.28 -61.4841 209.106 -60.7423Z" fill="white"/>
<path d="M211.379 -1.78734C207.709 -0.808526 203.81 -1.16647 200.378 -2.79726C196.947 -4.42806 194.206 -7.2255 192.646 -10.69C192.333 -11.3921 193.409 -11.9116 193.723 -11.2086C195.169 -7.97976 197.722 -5.37419 200.921 -3.86213C204.119 -2.35007 207.753 -2.03111 211.165 -2.96286C211.907 -3.16447 212.117 -1.98779 211.379 -1.78734Z" fill="white"/>
<path d="M231.314 24.2584C235.263 17.5723 236.547 9.64258 234.91 2.05036C234.747 1.29828 235.922 1.08549 236.085 1.83666C237.774 9.74048 236.421 17.9899 232.297 24.9385C231.903 25.6005 230.923 24.9168 231.314 24.2584Z" fill="white"/>
<path d="M155.567 289.094L160.771 289.419L175.59 282.716L165.438 236.069C165.438 236.069 155.282 201.705 184.471 190.32L264.698 133.716C264.698 133.716 287.895 114.223 300.006 123.187C302.299 124.885 356.787 159.802 356.787 159.802L370.134 147.691L339.862 106.931L249.5 49.3333L185.971 86.9226L126.124 133.928L155.567 289.094Z" fill="#3F3D56"/>
<path d="M187.992 191.622C200.949 182.821 204.315 165.18 195.512 152.219C186.708 139.259 169.068 135.886 156.112 144.687C143.155 153.488 139.788 171.129 148.592 184.09C157.395 197.05 175.035 200.422 187.992 191.622Z" fill="#2F2E41"/>
<path d="M266.673 138.177C279.63 129.377 282.997 111.736 274.193 98.775C265.39 85.8144 247.75 82.4422 234.793 91.243C221.837 100.044 218.47 117.685 227.273 130.645C236.077 143.606 253.717 146.978 266.673 138.177Z" fill="#2F2E41"/>
<path d="M92.3875 109.886L100.76 101.43C100.76 101.43 166.437 41.6496 220.744 22.7L223.889 34.8098L101.767 116.705L92.3875 109.886Z" fill="#E6E6E6"/>
<path d="M224.656 93.6439L162.935 135.568C155.441 140.658 145.438 139.867 139.151 133.686L109.442 104.48C108.791 103.844 108.281 103.079 107.942 102.235C107.604 101.391 107.446 100.485 107.477 99.5761C107.508 98.6233 107.735 97.6873 108.144 96.826C108.552 95.9648 109.133 95.1968 109.851 94.5697C139.658 68.4165 171.888 46.5148 205.644 29.4718C206.48 29.0422 207.396 28.7892 208.334 28.7287C209.272 28.6681 210.212 28.8012 211.096 29.1197C211.944 29.4187 212.721 29.8891 213.38 30.5014C214.038 31.1137 214.563 31.8549 214.923 32.6789L231.572 70.6048C235.166 78.7915 232.257 88.4809 224.656 93.6439Z" fill="#505050"/>
<path d="M68.6689 134.037L65.6528 129.019C65.1829 128.237 64.9095 127.353 64.8558 126.442C64.8021 125.532 64.9699 124.622 65.3447 123.79C67.6173 118.752 74.5531 106.346 89.8431 99.9938C90.9176 99.549 92.1031 99.4459 93.2385 99.6985C94.3739 99.9512 95.404 100.547 96.1888 101.406L98.2572 103.678L68.6689 134.037Z" fill="#3F3D56"/>
<path d="M257.844 5.5405L218.717 21.8563L216.548 17.4217C216.291 16.8991 216.195 16.3114 216.274 15.7342C216.353 15.157 216.603 14.6166 216.991 14.1826C229.824 -0.209884 246.351 -1.35659 251.111 -1.36534C251.563 -1.36536 252.009 -1.2614 252.415 -1.06152C252.821 -0.861635 253.175 -0.571184 253.451 -0.212573L257.844 5.5405Z" fill="#3F3D56"/>
<path d="M159.407 291.094C158.585 291.665 157.617 291.989 156.616 292.026C143.767 292.901 131.343 286.95 119.708 274.336C110.097 263.917 100.934 248.869 92.4727 229.611C77.4714 195.467 68.6216 157.165 65.5131 142.282C65.1051 140.316 65.1645 138.282 65.6866 136.344C66.2086 134.405 67.1786 132.616 68.5185 131.122C76.7437 121.984 91.2146 106.198 95.7168 103.14C101.887 98.949 109.171 102.491 109.244 102.528L109.295 102.563L130.679 122.386L130.909 122.725C140.77 130.812 143.513 139.629 144.077 145.603C144.688 152.087 142.931 156.725 142.913 156.771C140.367 164.369 140.563 183.142 143.428 205.754C146.404 229.254 151.522 250.96 157.119 263.819C163.969 279.558 163.018 286.446 161.013 289.453C160.59 290.1 160.044 290.657 159.407 291.094Z" fill="#E6E6E6"/>
<path d="M220.66 92.1376L162.342 131.75C158.896 134.083 154.748 135.148 150.604 134.761C146.461 134.375 142.579 132.562 139.623 129.632L110.916 101.1C110.28 100.469 109.78 99.7139 109.448 98.882C109.115 98.0501 108.956 97.1588 108.981 96.2632C109.006 95.3676 109.215 94.4868 109.593 93.675C109.972 92.8632 110.514 92.1378 111.184 91.5435C139.273 66.7192 169.727 46.0238 201.699 30.0315C202.49 29.6381 203.354 29.409 204.236 29.3581C205.119 29.3073 206.002 29.4357 206.834 29.7356C207.666 30.0356 208.428 30.5009 209.075 31.1034C209.723 31.706 210.241 32.4333 210.6 33.2416L226.965 70.0096C228.678 73.8522 228.985 78.1748 227.833 82.2204C226.68 86.266 224.141 89.7767 220.66 92.1376Z" fill="#E6E6E6"/>
<path d="M370.402 147.777C369.76 148.209 369.041 148.511 368.283 148.666C364.749 149.421 357.995 147.766 345.889 135.597C335.998 125.656 317.706 112.898 296.958 101.469C276.993 90.472 259.614 83.3709 251.603 82.9367C251.564 82.9365 246.604 82.8605 240.802 79.9021C235.456 77.1767 228.271 71.377 224.388 59.2295L224.135 58.8467L213.6 31.6771L213.598 31.6459C213.591 31.5647 212.983 23.4872 219.153 19.2963C223.655 16.2382 243.663 8.60435 255.189 4.32617C257.073 3.63167 259.093 3.38926 261.088 3.61848C263.082 3.8477 264.995 4.54213 266.672 5.64585C279.361 14.0209 311.705 36.3648 337.916 62.8944C352.7 77.8581 363.311 91.9223 369.454 104.697C376.892 120.162 377.845 133.905 372.288 145.544C371.886 146.453 371.231 147.228 370.402 147.777Z" fill="#E6E6E6"/>
<path d="M178.918 178.263C186.692 172.983 188.712 162.398 183.43 154.622C178.148 146.846 167.564 144.822 159.79 150.103C152.016 155.383 149.996 165.968 155.278 173.744C160.56 181.52 171.144 183.544 178.918 178.263Z" fill="#3F3D56"/>
<path d="M175.73 173.57C180.913 170.05 182.26 162.993 178.738 157.809C175.217 152.625 168.161 151.276 162.978 154.796C157.796 158.316 156.449 165.373 159.97 170.557C163.492 175.741 170.548 177.09 175.73 173.57Z" fill="#2F2E41"/>
<path d="M257.6 124.819C265.374 119.539 267.394 108.954 262.112 101.178C256.83 93.4014 246.246 91.3781 238.472 96.6585C230.698 101.939 228.678 112.524 233.96 120.3C239.242 128.076 249.826 130.1 257.6 124.819Z" fill="#3F3D56"/>
<path d="M254.412 120.126C259.594 116.605 260.941 109.549 257.42 104.365C253.898 99.1805 246.842 97.8317 241.66 101.352C236.477 104.872 235.13 111.929 238.652 117.113C242.173 122.297 249.229 123.646 254.412 120.126Z" fill="#2F2E41"/>
<path d="M188.507 126.376C189.105 125.97 189.26 125.156 188.854 124.558C188.448 123.959 187.634 123.804 187.036 124.21C186.438 124.616 186.282 125.43 186.689 126.028C187.095 126.627 187.909 126.782 188.507 126.376Z" fill="#2F2E41"/>
<path d="M193.199 123.189C193.797 122.783 193.952 121.969 193.546 121.37C193.14 120.772 192.326 120.617 191.728 121.023C191.13 121.429 190.974 122.243 191.381 122.841C191.787 123.44 192.601 123.595 193.199 123.189Z" fill="#2F2E41"/>
<path d="M193.731 128.631C194.329 128.225 194.484 127.411 194.078 126.813C193.672 126.215 192.858 126.059 192.26 126.465C191.662 126.871 191.506 127.686 191.913 128.284C192.319 128.882 193.133 129.038 193.731 128.631Z" fill="#2F2E41"/>
<path d="M198.062 125.689C198.66 125.283 198.816 124.469 198.409 123.871C198.003 123.273 197.189 123.117 196.591 123.523C195.993 123.929 195.837 124.744 196.244 125.342C196.65 125.94 197.464 126.096 198.062 125.689Z" fill="#2F2E41"/>
<path d="M202.393 122.748C202.991 122.341 203.147 121.527 202.74 120.929C202.334 120.331 201.52 120.175 200.922 120.581C200.324 120.988 200.168 121.802 200.575 122.4C200.981 122.998 201.795 123.154 202.393 122.748Z" fill="#2F2E41"/>
<path d="M206.724 119.806C207.322 119.4 207.478 118.585 207.071 117.987C206.665 117.389 205.851 117.233 205.253 117.64C204.655 118.046 204.5 118.86 204.906 119.458C205.312 120.056 206.126 120.212 206.724 119.806Z" fill="#2F2E41"/>
<path d="M197.891 120.002C198.489 119.596 198.644 118.782 198.238 118.183C197.832 117.585 197.018 117.43 196.42 117.836C195.822 118.242 195.666 119.056 196.073 119.654C196.479 120.253 197.293 120.408 197.891 120.002Z" fill="#2F2E41"/>
<path d="M202.583 116.815C203.181 116.409 203.336 115.595 202.93 114.996C202.524 114.398 201.71 114.243 201.112 114.649C200.514 115.055 200.358 115.869 200.765 116.467C201.171 117.066 201.985 117.221 202.583 116.815Z" fill="#2F2E41"/>
<path d="M207.275 113.628C207.873 113.222 208.028 112.408 207.622 111.809C207.216 111.211 206.402 111.056 205.804 111.462C205.206 111.868 205.05 112.682 205.457 113.28C205.863 113.879 206.677 114.034 207.275 113.628Z" fill="#2F2E41"/>
<path d="M224.17 149.373L214.786 155.747C214.356 156.039 213.826 156.149 213.315 156.051C212.803 155.953 212.351 155.656 212.059 155.225C211.766 154.794 211.656 154.265 211.754 153.753C211.852 153.242 212.148 152.79 212.579 152.497L221.963 146.123C222.394 145.831 222.923 145.721 223.435 145.819C223.946 145.917 224.398 146.214 224.691 146.645C224.984 147.076 225.093 147.605 224.996 148.117C224.898 148.628 224.601 149.08 224.17 149.373Z" fill="#2F2E41"/>
<path d="M114.064 120.955C113.458 121.364 112.73 121.558 112 121.503C111.27 121.449 110.579 121.15 110.04 120.655L104.449 115.521C103.815 114.937 103.438 114.125 103.401 113.263C103.365 112.401 103.672 111.56 104.255 110.925C104.838 110.29 105.65 109.912 106.512 109.875C107.373 109.838 108.214 110.145 108.85 110.727L114.441 115.862C114.802 116.194 115.083 116.604 115.264 117.061C115.445 117.518 115.52 118.01 115.483 118.499C115.447 118.989 115.301 119.464 115.055 119.89C114.809 120.315 114.471 120.679 114.064 120.955Z" fill="#3F3D56"/>
<path d="M229.067 42.3121C228.661 42.5881 228.197 42.7687 227.712 42.8404C227.226 42.9121 226.73 42.8731 226.261 42.7262C225.793 42.5793 225.363 42.3284 225.005 41.9922C224.647 41.656 224.37 41.2432 224.194 40.7847L221.481 33.6955C221.174 32.8896 221.199 31.9947 221.551 31.2074C221.903 30.4201 222.553 29.8049 223.359 29.4969C224.164 29.1888 225.059 29.2132 225.847 29.5647C226.634 29.9161 227.25 30.5659 227.559 31.3712L230.271 38.4604C230.533 39.1445 230.556 39.8967 230.338 40.5955C230.119 41.2943 229.671 41.8991 229.067 42.3121Z" fill="#3F3D56"/>
<path d="M106.462 152.482C105.576 153.084 104.527 153.398 103.456 153.382L98.9982 153.319C98.1593 153.306 97.3357 153.092 96.597 152.694C95.8583 152.296 95.2263 151.726 94.7545 151.032L90.3543 144.554C89.4721 143.252 89.1423 141.654 89.437 140.109C89.7318 138.565 90.6271 137.2 91.9266 136.316L96.5534 133.173C97.8548 132.291 99.4531 131.962 100.997 132.257C102.542 132.552 103.906 133.448 104.791 134.748L109.235 141.289C109.693 141.967 109.986 142.741 110.091 143.552C110.196 144.363 110.11 145.187 109.84 145.958L108.45 149.9C108.08 150.951 107.383 151.856 106.462 152.482Z" fill="#3F3D56"/>
<path d="M124.755 174.692L120.128 177.834C118.827 178.716 117.229 179.046 115.684 178.751C114.14 178.455 112.775 177.56 111.89 176.26L107.49 169.782C107.019 169.087 106.722 168.29 106.624 167.456C106.526 166.623 106.631 165.778 106.929 164.994L108.513 160.827C108.9 159.805 109.599 158.932 110.51 158.329C111.421 157.726 112.498 157.425 113.59 157.468L117.767 157.629C118.584 157.662 119.381 157.885 120.096 158.282C120.811 158.678 121.423 159.236 121.884 159.912L126.327 166.453C127.209 167.755 127.539 169.354 127.245 170.898C126.95 172.443 126.054 173.807 124.755 174.692Z" fill="#3F3D56"/>
<path d="M129.996 151.347L123.52 155.746C122.825 156.217 122.028 156.514 121.195 156.611C120.361 156.709 119.517 156.604 118.733 156.306L114.565 154.72C113.544 154.333 112.67 153.634 112.067 152.722C111.465 151.811 111.163 150.734 111.205 149.642L111.365 145.464C111.398 144.647 111.621 143.85 112.017 143.135C112.414 142.42 112.972 141.808 113.647 141.347L120.187 136.905C121.488 136.023 123.086 135.694 124.631 135.989C126.175 136.284 127.539 137.18 128.424 138.48L131.568 143.108C132.45 144.41 132.78 146.009 132.485 147.553C132.191 149.098 131.295 150.462 129.996 151.347Z" fill="#3F3D56"/>
<path d="M102.61 169.948L96.1341 174.347C94.8327 175.229 93.2344 175.558 91.6901 175.263C90.1457 174.968 88.7813 174.072 87.8963 172.772L84.7526 168.144C83.8705 166.842 83.5406 165.244 83.8353 163.699C84.1301 162.155 85.0254 160.791 86.3249 159.906L92.8647 155.464C93.5416 155.006 94.3163 154.713 95.1268 154.608C95.9373 154.503 96.7611 154.589 97.5324 154.86L101.475 156.251C102.505 156.614 103.396 157.292 104.021 158.188C104.646 159.084 104.973 160.154 104.958 161.247L104.895 165.705C104.883 166.544 104.67 167.367 104.272 168.106C103.874 168.845 103.304 169.477 102.61 169.948Z" fill="#3F3D56"/>
<path d="M256.491 40.0999C261.076 36.9858 262.267 30.7435 259.152 26.1575C256.037 21.5714 249.795 20.3782 245.211 23.4923C240.626 26.6064 239.435 32.8486 242.55 37.4347C245.665 42.0208 251.907 43.214 256.491 40.0999Z" fill="#3F3D56"/>
<path d="M287.896 46.7317C292.48 43.6176 293.672 37.3754 290.557 32.7893C287.442 28.2033 281.2 27.01 276.615 30.1242C272.03 33.2383 270.839 39.4805 273.954 44.0665C277.069 48.6526 283.311 49.8458 287.896 46.7317Z" fill="#3F3D56"/>
<path d="M281.75 77.2864C286.335 74.1723 287.526 67.93 284.411 63.344C281.296 58.7579 275.054 57.5647 270.47 60.6788C265.885 63.7929 264.694 70.0351 267.809 74.6212C270.924 79.2072 277.166 80.4005 281.75 77.2864Z" fill="#3F3D56"/>
<path d="M250.836 71.3766C255.421 68.2625 256.612 62.0203 253.497 57.4343C250.382 52.8482 244.14 51.655 239.556 54.7691C234.971 57.8832 233.78 64.1254 236.895 68.7115C240.01 73.2975 246.252 74.4908 250.836 71.3766Z" fill="#3F3D56"/>
<path d="M285.934 43.8435C284.863 44.5708 283.601 44.9641 282.306 44.9738C281.012 44.9835 279.743 44.609 278.661 43.8978C277.579 43.1866 276.733 42.1705 276.228 40.9781C275.723 39.7857 275.583 38.4705 275.826 37.1989C276.069 35.9272 276.683 34.7562 277.591 33.8339C278.5 32.9116 279.661 32.2795 280.929 32.0174C282.196 31.7553 283.513 31.8751 284.713 32.3616C285.913 32.8481 286.942 33.6795 287.669 34.7506C288.643 36.1875 289.007 37.9518 288.682 39.6564C288.356 41.3611 287.368 42.8669 285.934 43.8435ZM279.067 33.7345C278.139 34.3648 277.419 35.2563 276.998 36.2961C276.577 37.3359 276.473 38.4774 276.701 39.5763C276.928 40.6751 277.476 41.6819 278.276 42.4694C279.075 43.2569 280.09 43.7896 281.192 44.0003C282.294 44.211 283.434 44.0901 284.467 43.653C285.5 43.2158 286.38 42.4821 286.996 41.5445C287.612 40.6069 287.937 39.5076 287.928 38.3855C287.919 37.2635 287.578 36.1692 286.947 35.2409C286.101 33.9975 284.796 33.1406 283.318 32.8582C281.841 32.5757 280.312 32.8909 279.067 33.7345Z" fill="#E6E6E6"/>
<path d="M259.389 31.8849L248.404 39.1212L247.628 25.9872L259.389 31.8849ZM249.186 37.5606L257.646 31.9875L248.588 27.4452L249.186 37.5606Z" fill="#E6E6E6"/>
<path d="M252.47 64.4634L243.808 70.3471L237.922 61.6823L246.584 55.7986L252.47 64.4634ZM244.039 69.1347L251.258 64.2316L246.353 57.0109L239.134 61.9141L244.039 69.1347Z" fill="#E6E6E6"/>
<path d="M283.122 69.6679L276.462 68.4014L277.588 62.5303L276.731 62.3657L275.604 68.2381L269.73 67.1211L269.567 67.9787L275.44 69.0957L274.163 75.7532L275.02 75.918L276.298 69.2587L282.959 70.5256L283.122 69.6679Z" fill="#E6E6E6"/>
<path d="M57.1593 79.9241C56.0886 80.6515 54.8261 81.0448 53.5316 81.0545C52.2371 81.0642 50.9687 80.6897 49.8868 79.9785C48.8049 79.2673 47.9581 78.2512 47.4534 77.0588C46.9488 75.8664 46.8089 74.5512 47.0516 73.2796C47.2943 72.0079 47.9086 70.8369 48.8169 69.9146C49.7252 68.9923 50.8866 68.3602 52.1542 68.0981C53.4219 67.836 54.7389 67.9558 55.9387 68.4423C57.1385 68.9288 58.1672 69.7602 58.8947 70.8313C59.8684 72.2682 60.2325 74.0325 59.9071 75.7371C59.5818 77.4418 58.5936 78.9476 57.1593 79.9241ZM50.2929 69.8152C49.3649 70.4455 48.6447 71.337 48.2234 72.3768C47.8021 73.4166 47.6986 74.5581 47.926 75.657C48.1534 76.7558 48.7015 77.7626 49.501 78.5501C50.3004 79.3376 51.3153 79.8703 52.4174 80.081C53.5194 80.2917 54.6591 80.1708 55.6923 79.7337C56.7254 79.2965 57.6057 78.5628 58.2218 77.6252C58.8378 76.6876 59.162 75.5883 59.1533 74.4662C59.1446 73.3442 58.8034 72.2499 58.1729 71.3216C57.3263 70.0782 56.0212 69.2213 54.5439 68.9389C53.0666 68.6564 51.5378 68.9716 50.2929 69.8152Z" fill="#E6E6E6"/>
<path d="M38.8224 79.2735L27.8379 86.5098L27.0615 73.3758L38.8224 79.2735ZM28.6199 84.9492L37.08 79.3761L28.022 74.8338L28.6199 84.9492Z" fill="#E6E6E6"/>
<path d="M31.7555 103.322L23.0933 109.205L17.2078 100.541L25.8699 94.6569L31.7555 103.322ZM23.3247 107.993L30.5432 103.09L25.6386 95.8692L18.4201 100.772L23.3247 107.993Z" fill="#E6E6E6"/>
<path d="M50.5477 114.133L43.8882 112.866L45.0146 106.995L44.1574 106.831L43.0306 112.703L37.1562 111.586L36.9935 112.444L42.8661 113.56L41.5889 120.218L42.4461 120.383L43.7237 113.723L50.385 114.99L50.5477 114.133Z" fill="#E6E6E6"/>
<path opacity="0.2" d="M347.557 25.4648L340.711 45.5275L351.814 27.8494L347.557 25.4648Z" fill="black"/>
<path d="M97.2412 214.485L80.0464 227.219L69.7882 216.776L81.759 201.786L97.2412 214.485Z" fill="#A0616A"/>
<path d="M70.9057 189.702L64.2321 188.364L64.044 177.681L62.9595 158.274C62.2856 157.864 61.7521 157.259 61.4295 156.539C61.1069 155.82 61.0103 155.019 61.1526 154.243C61.2949 153.467 61.6694 152.753 62.2264 152.195C62.7835 151.637 63.4969 151.261 64.2723 151.117C65.0477 150.973 65.8486 151.068 66.569 151.389C67.2893 151.711 67.8953 152.243 68.3066 152.916C68.7179 153.589 68.9153 154.371 68.8726 155.159C68.8298 155.947 68.549 156.703 68.0673 157.327L71.2298 176.684L70.9057 189.702Z" fill="#A0616A"/>
<path d="M72.7662 201.842C72.7904 202.874 72.5169 203.891 71.9784 204.772C71.4399 205.653 70.6592 206.359 69.7296 206.808C68.8612 207.259 67.88 207.447 66.9063 207.348C65.9327 207.249 65.009 206.868 64.2487 206.252C63.7028 205.819 63.2579 205.271 62.945 204.649C62.6322 204.026 62.459 203.342 62.4374 202.646C62.0537 196.404 62.9289 187.221 62.9378 187.129L62.9519 186.983L72.3688 183.187L72.7662 201.842Z" fill="#505050"/>
<path d="M146.312 295.797L151.217 292.465L140.696 271.957L133.458 276.874L146.312 295.797Z" fill="#A0616A"/>
<path d="M143.973 295.045L153.632 288.484L153.632 288.484C155.265 287.375 157.271 286.96 159.21 287.331C161.148 287.701 162.861 288.827 163.97 290.46L164.106 290.66L148.292 301.403L143.973 295.045Z" fill="#2F2E41"/>
<path d="M106.681 319.614L112.028 317.053L104.691 295.203L97.5984 298.438L106.681 319.614Z" fill="#A0616A"/>
<path d="M104.48 318.52L115.011 313.477L115.012 313.477C116.792 312.625 118.838 312.515 120.699 313.171C122.561 313.827 124.086 315.196 124.938 316.976L125.043 317.194L107.8 325.452L104.48 318.52Z" fill="#2F2E41"/>
<path d="M76.8722 224.099L91.8738 209.689L104.474 216.946L152.65 287.442L143.3 293.707L100.578 239.183L111.654 308.855L100.837 314.448L84.178 243.013C84.178 243.013 76.1823 233.823 76.5851 226.24L76.8722 224.099Z" fill="#2F2E41"/>
<path d="M56.0916 207.055C55.3032 206.452 54.7067 205.633 54.3746 204.698C54.0426 203.762 53.9892 202.751 54.221 201.786L55.1428 197.956L61.1614 192.194L64.8862 188.535L85.1646 203.694L73.754 222.586C72.0845 223.261 70.9619 222.859 70.7331 220.7L56.0916 207.055Z" fill="#505050"/>
<path d="M75.854 203.394L78.5418 197.141L89.0313 199.17L108.24 202.128C108.781 201.554 109.483 201.157 110.253 200.99C111.024 200.824 111.828 200.895 112.557 201.195C113.287 201.495 113.908 202.009 114.339 202.67C114.77 203.331 114.99 204.107 114.971 204.895C114.951 205.684 114.693 206.448 114.23 207.086C113.767 207.724 113.121 208.207 112.377 208.47C111.634 208.733 110.828 208.764 110.066 208.559C109.305 208.354 108.623 207.923 108.112 207.322L88.5225 206.407L75.854 203.394Z" fill="#A0616A"/>
<path d="M63.5932 202.699C62.5786 202.509 61.6402 202.031 60.89 201.322C60.1399 200.612 59.6098 199.702 59.3631 198.7C59.1015 197.757 59.1208 196.758 59.4186 195.826C59.7163 194.893 60.2797 194.069 61.0395 193.452C61.5761 193.008 62.2031 192.686 62.877 192.509C63.5509 192.331 64.2553 192.303 64.9412 192.427C71.1268 193.344 79.929 196.103 80.017 196.13L80.1569 196.174L81.9257 206.175L63.5932 202.699Z" fill="#505050"/>
<path d="M56.5424 191.811C60.6628 189.013 61.7335 183.403 58.9339 179.281C56.1343 175.159 50.5245 174.087 46.4041 176.886C42.2837 179.684 41.213 185.294 44.0126 189.416C46.8122 193.538 52.422 194.61 56.5424 191.811Z" fill="#A0616A"/>
<path d="M52.6547 199.083C51.4976 199.869 50.2938 200.583 49.0501 201.223L48.8796 201.311L43.245 195.601C40.8562 193.181 39.484 189.938 39.4101 186.538C39.3363 183.139 40.5663 179.84 42.8478 177.32C42.9987 177.15 43.1937 177.025 43.4112 176.958C43.6287 176.892 43.8603 176.887 44.0805 176.943L44.2992 176.649C45.1366 175.521 46.1879 174.569 47.3932 173.847C48.5986 173.125 49.9343 172.648 51.3242 172.443C52.714 172.237 54.1308 172.308 55.4936 172.65C56.8564 172.993 58.1384 173.6 59.2666 174.438L59.4762 174.593L58.0167 176.56C57.5619 177.172 57.2495 177.879 57.1021 178.627C56.9546 179.376 56.976 180.148 57.1645 180.888C57.353 181.627 57.7039 182.316 58.1918 182.903C58.6796 183.489 59.2922 183.96 59.9848 184.281L64.1523 186.209L64.015 186.455C61.2729 191.499 57.381 195.825 52.6547 199.083Z" fill="#2F2E41"/>
<path d="M330.181 56.2127C329.984 55.7368 329.893 55.2236 329.916 54.7091C329.939 54.1946 330.074 53.6913 330.312 53.2348C330.551 52.7783 330.886 52.3796 331.295 52.0669C331.704 51.7541 332.177 51.5348 332.68 51.4245L334.152 38.993L339.123 43.1895L336.963 54.3514C337.093 55.2088 336.903 56.0838 336.431 56.8107C335.958 57.5375 335.236 58.0657 334.4 58.2952C333.564 58.5246 332.672 58.4393 331.895 58.0555C331.117 57.6717 330.507 57.016 330.181 56.2127Z" fill="#FFB6B6"/>
<path d="M337.099 1.2544L339.776 -0.784163L341.396 0.698999C341.396 0.698999 342.892 2.99022 343.553 9.4162C344.213 15.8422 338.802 50.1268 338.802 50.1268L331.27 48.1874L334.425 30.2159L333.08 14.5396L337.099 1.2544Z" fill="#505050"/>
<path d="M100.545 334.42L430.531 110.278C430.651 110.197 430.733 110.072 430.76 109.93C430.787 109.789 430.757 109.642 430.676 109.522C430.594 109.403 430.469 109.321 430.327 109.294C430.186 109.266 430.039 109.297 429.92 109.378L99.9334 333.52C99.814 333.601 99.7317 333.726 99.7047 333.868C99.6776 334.01 99.708 334.157 99.7891 334.276C99.8702 334.395 99.9954 334.478 100.137 334.505C100.279 334.532 100.426 334.501 100.545 334.42Z" fill="#CCCCCC"/>
</g>
<defs>
<clipPath id="clip0_405_41">
<rect width="400" height="267.128" fill="white" transform="translate(-50 113.754) rotate(-34.1862)"/>
</clipPath>
</defs>
</svg>
