<svg width="100" height="100" viewBox="0 0 100 100" fill="none" xmlns="http://www.w3.org/2000/svg">
<path d="M70.8334 54.7082V70.1123H61.9043V55.7373C61.9043 52.129 60.6126 49.6665 57.3792 49.6665C54.9126 49.6665 53.4417 51.3248 52.7959 52.9332C52.5626 53.5082 52.5001 54.3082 52.5001 55.1082V70.1123H43.5668C43.5668 70.1123 43.6876 45.7707 43.5668 43.2498H52.5001V47.054L52.4418 47.1415H52.5001V47.054C53.6876 45.2207 55.8042 42.6165 60.5501 42.6165C66.4251 42.6165 70.8334 46.4582 70.8334 54.7082ZM34.2209 30.2957C31.1667 30.2957 29.1667 32.304 29.1667 34.9373C29.1667 37.5207 31.1084 39.5832 34.1042 39.5832H34.1626C37.2792 39.5832 39.2167 37.5165 39.2167 34.9373C39.1584 32.304 37.2792 30.2957 34.2209 30.2957ZM29.6959 70.1123H38.6292V43.2498H29.6959V70.1123Z" fill="white"/>
<path d="M50 83.3333C58.8406 83.3333 67.3191 79.8214 73.5703 73.5702C79.8215 67.3189 83.3334 58.8405 83.3334 49.9999C83.3334 41.1594 79.8215 32.6809 73.5703 26.4297C67.3191 20.1785 58.8406 16.6666 50 16.6666C41.1595 16.6666 32.681 20.1785 26.4298 26.4297C20.1786 32.6809 16.6667 41.1594 16.6667 49.9999C16.6667 58.8405 20.1786 67.3189 26.4298 73.5702C32.681 79.8214 41.1595 83.3333 50 83.3333ZM50 91.6666C26.9875 91.6666 8.33337 73.0124 8.33337 49.9999C8.33337 26.9874 26.9875 8.33325 50 8.33325C73.0125 8.33325 91.6667 26.9874 91.6667 49.9999C91.6667 73.0124 73.0125 91.6666 50 91.6666Z" fill="white"/>
</svg>
